<?xml version="1.0" encoding="UTF-8" standalone="no"?>
<svg
   xmlns:dc="http://purl.org/dc/elements/1.1/"
   xmlns:cc="http://creativecommons.org/ns#"
   xmlns:rdf="http://www.w3.org/1999/02/22-rdf-syntax-ns#"
   xmlns:svg="http://www.w3.org/2000/svg"
   xmlns="http://www.w3.org/2000/svg"
   xmlns:sodipodi="http://sodipodi.sourceforge.net/DTD/sodipodi-0.dtd"
   xmlns:inkscape="http://www.inkscape.org/namespaces/inkscape"
   id="svg2"
   width="16"
   height="16"
   version="1.1"
   sodipodi:docname="star-filled.svg"
   inkscape:version="0.92.4 (5da689c313, 2019-01-14)">
  <metadata
     id="metadata1372">
    <rdf:RDF>
      <cc:Work
         rdf:about="">
        <dc:format>image/svg+xml</dc:format>
        <dc:type
           rdf:resource="http://purl.org/dc/dcmitype/StillImage" />
      </cc:Work>
    </rdf:RDF>
  </metadata>
  <defs
     id="defs1370" />
  <sodipodi:namedview
     pagecolor="#ffffff"
     bordercolor="#666666"
     borderopacity="1"
     objecttolerance="10"
     gridtolerance="10"
     guidetolerance="10"
     inkscape:pageopacity="0"
     inkscape:pageshadow="2"
     inkscape:window-width="640"
     inkscape:window-height="480"
     id="namedview1368"
     showgrid="false"
     inkscape:zoom="45.9375"
     inkscape:cx="4.2340136"
     inkscape:cy="8"
     inkscape:current-layer="svg2" />
  <path
     id="rect3336"
     style="opacity:1;fill:#ee923a;fill-opacity:1;stroke-width:1.02619886"
     d="m 14,6.6501027 c 0,0.1108547 -0.0625,0.2318189 -0.1875,0.3628928 l -2.617788,2.6766245 0.820155,3.780678 c 0.0048,0.0351 0.0072,0.08547 0.0072,0.151117 0,0.10587 -0.02524,0.195347 -0.07572,0.268431 -0.05048,0.07273 -0.123797,0.1091 -0.219951,0.1091 -0.09135,0 -0.1875,-0.03019 -0.288461,-0.09057 L 7.9999988,12.123929 4.5616727,13.908381 c -0.1057689,0.06108 -0.2019225,0.09162 -0.288461,0.09162 -0.1009615,0 -0.1766826,-0.03637 -0.2271634,-0.1091 -0.050481,-0.0728 -0.075721,-0.16228 -0.075721,-0.268431 0,-0.03089 0.00481,-0.08127 0.014423,-0.151117 l 0.8205376,-3.78068 -2.625,-2.6766244 C 2.060096,6.8772179 2,6.7559026 2,6.6501027 2,6.4635664 2.1346154,6.347657 2.4038462,6.3023743 L 6.0240385,5.7503476 7.6466346,2.310027 c 0.091346,-0.2066853 0.2091348,-0.310028 0.3533655,-0.310028 0.1442308,0 0.2620193,0.1033427 0.3533654,0.310028 L 9.9759616,5.7503476 13.596154,6.3023743 C 13.865385,6.3475165 14,6.463426 14,6.6501027 Z"
     inkscape:connector-curvature="0" />
</svg>
