<?xml version="1.0" encoding="UTF-8" standalone="no"?>
<svg
   xmlns:dc="http://purl.org/dc/elements/1.1/"
   xmlns:cc="http://creativecommons.org/ns#"
   xmlns:rdf="http://www.w3.org/1999/02/22-rdf-syntax-ns#"
   xmlns:svg="http://www.w3.org/2000/svg"
   xmlns="http://www.w3.org/2000/svg"
   xmlns:sodipodi="http://sodipodi.sourceforge.net/DTD/sodipodi-0.dtd"
   xmlns:inkscape="http://www.inkscape.org/namespaces/inkscape"
   width="16"
   height="16"
   viewBox="0 0 16 16"
   version="1.1"
   id="svg7"
   sodipodi:docname="gimp-rotate-180.svg"
   inkscape:version="0.92.3 (2405546, 2018-03-11)">
  <metadata
     id="metadata11">
    <rdf:RDF>
      <cc:Work
         rdf:about="">
        <dc:format>image/svg+xml</dc:format>
        <dc:type
           rdf:resource="http://purl.org/dc/dcmitype/StillImage" />
      </cc:Work>
    </rdf:RDF>
  </metadata>
  <sodipodi:namedview
     pagecolor="#ffffff"
     bordercolor="#666666"
     borderopacity="1"
     objecttolerance="10"
     gridtolerance="10"
     guidetolerance="10"
     inkscape:pageopacity="0"
     inkscape:pageshadow="2"
     inkscape:window-width="640"
     inkscape:window-height="480"
     id="namedview9"
     showgrid="false"
     inkscape:zoom="56.856523"
     inkscape:cx="4.9572533"
     inkscape:cy="8"
     inkscape:current-layer="svg7" />
  <defs
     id="defs3">
    <style
       id="current-color-scheme"
       type="text/css">
   .ColorScheme-Text { color:#6e6e6e; } .ColorScheme-Highlight { color:#5294e2; }
  </style>
  </defs>
  <path
     style="color:#6e6e6e;fill:currentColor"
     class="ColorScheme-Text"
     d="m 7.980489,14.001973 v -2 c 3.3137,0 6,-2.6863 6,-6.0000001 0,-3.3136999 -2.6863,-5.99999992 -6,-5.99999992 -3.2801,0 -5.94034,2.63319102 -5.99414,5.90039052 a 1,1 0 0 0 -0.0059,0.099609 1,1 0 0 0 1,1 1,1 0 0 0 1,-1 c 0,-2.2090999 1.7908998,-3.9999999 4,-3.9999999 2.2091,0 4,1.7909 4,3.9999999 0,2.2091 -1.7909,4.0000005 -4,4.0000005 V 8.0019729 l -4,3.0000001 z"
     id="path5"
     inkscape:connector-curvature="0" />
</svg>
