<?xml version="1.0" encoding="UTF-8" standalone="no"?>
<svg
   xmlns:dc="http://purl.org/dc/elements/1.1/"
   xmlns:cc="http://creativecommons.org/ns#"
   xmlns:rdf="http://www.w3.org/1999/02/22-rdf-syntax-ns#"
   xmlns:svg="http://www.w3.org/2000/svg"
   xmlns="http://www.w3.org/2000/svg"
   xmlns:sodipodi="http://sodipodi.sourceforge.net/DTD/sodipodi-0.dtd"
   xmlns:inkscape="http://www.inkscape.org/namespaces/inkscape"
   width="24"
   height="24"
   version="1.1"
   viewBox="0 0 24 24"
   id="svg6"
   sodipodi:docname="lens.svg"
   inkscape:version="0.92.3 (2405546, 2018-03-11)">
  <metadata
     id="metadata12">
    <rdf:RDF>
      <cc:Work
         rdf:about="">
        <dc:format>image/svg+xml</dc:format>
        <dc:type
           rdf:resource="http://purl.org/dc/dcmitype/StillImage" />
        <dc:title></dc:title>
      </cc:Work>
    </rdf:RDF>
  </metadata>
  <defs
     id="defs10" />
  <sodipodi:namedview
     pagecolor="#ffffff"
     bordercolor="#666666"
     borderopacity="1"
     objecttolerance="10"
     gridtolerance="10"
     guidetolerance="10"
     inkscape:pageopacity="0"
     inkscape:pageshadow="2"
     inkscape:window-width="640"
     inkscape:window-height="480"
     id="namedview8"
     showgrid="false"
     inkscape:zoom="56.856523"
     inkscape:cx="4.9572533"
     inkscape:cy="8"
     inkscape:current-layer="svg6" />
  <rect
     style="fill:none"
     width="16"
     height="16"
     x="0"
     y="8"
     id="rect2" />
  <path
     style="fill:#666666"
     d="m 11.52687,3.9992613 c -4.1399996,0 -7.4999996,3.34 -7.4999996,7.4399997 0,4.1 3.36,7.41 7.4999996,7.41 1.47,0 2.84,-0.43 4,-1.16 l 1.97,1.94 c 0.52,0.51 1.33,0.49 1.84,-0.03 l 0.25,-0.25 c 0.51,-0.52 0.52,-1.37 0,-1.88 l -1.9,-1.84 c 0.84,-1.2 1.34,-2.62 1.34,-4.19 0,-4.0999997 -3.36,-7.4399997 -7.5,-7.4399997 z m 0,2 c 3.04,0 5.5,2.46 5.5,5.4999997 0,3.04 -2.46,5.5 -5.5,5.5 -3.0399996,0 -5.4999996,-2.46 -5.4999996,-5.5 0,-3.0399997 2.46,-5.4999997 5.4999996,-5.4999997 z"
     id="path4"
     inkscape:connector-curvature="0" />
</svg>
