<svg xmlns="http://www.w3.org/2000/svg" width="16" height="16" version="1.1" viewBox="0 0 16 16">
 <rect style="fill:none" width="16" height="16" x="0" y="0"/>
 <path style="fill:#666666" d="M 7.5,0 C 3.36,0 0,3.34 0,7.44 c 0,4.1 3.36,7.41 7.5,7.41 1.47,0 2.84,-0.43 4,-1.16 l 1.97,1.94 c 0.52,0.51 1.33,0.49 1.84,-0.03 l 0.25,-0.25 c 0.51,-0.52 0.52,-1.37 0,-1.88 l -1.9,-1.84 C 14.5,10.43 15,9.01 15,7.44 15,3.34 11.64,0 7.5,0 Z m 0,2 C 10.54,2 13,4.46 13,7.5 13,10.54 10.54,13 7.5,13 4.46,13 2,10.54 2,7.5 2,4.46 4.46,2 7.5,2 Z"/>
</svg>
