<?xml version="1.0" encoding="UTF-8" standalone="no"?>
<svg
   xmlns:dc="http://purl.org/dc/elements/1.1/"
   xmlns:cc="http://creativecommons.org/ns#"
   xmlns:rdf="http://www.w3.org/1999/02/22-rdf-syntax-ns#"
   xmlns:svg="http://www.w3.org/2000/svg"
   xmlns="http://www.w3.org/2000/svg"
   xmlns:sodipodi="http://sodipodi.sourceforge.net/DTD/sodipodi-0.dtd"
   xmlns:inkscape="http://www.inkscape.org/namespaces/inkscape"
   width="16"
   height="16"
   viewBox="0 0 16 16"
   version="1.1"
   id="svg7"
   sodipodi:docname="migrated-box.svg"
   inkscape:version="0.92.2 (5c3e80d, 2017-08-06)"
   inkscape:export-filename="/home/jesusda/work-in-progress/pasodoble/pasodoble-papirus/papirus-extra/zim/pixmaps/migrated-box.png"
   inkscape:export-xdpi="144.0336"
   inkscape:export-ydpi="144.0336">
  <metadata
     id="metadata11">
    <rdf:RDF>
      <cc:Work
         rdf:about="">
        <dc:format>image/svg+xml</dc:format>
        <dc:type
           rdf:resource="http://purl.org/dc/dcmitype/StillImage" />
        <dc:title></dc:title>
      </cc:Work>
    </rdf:RDF>
  </metadata>
  <sodipodi:namedview
     pagecolor="#ffffff"
     bordercolor="#666666"
     borderopacity="1"
     objecttolerance="10"
     gridtolerance="10"
     guidetolerance="10"
     inkscape:pageopacity="0"
     inkscape:pageshadow="2"
     inkscape:window-width="640"
     inkscape:window-height="480"
     id="namedview9"
     showgrid="true"
     inkscape:zoom="13.914947"
     inkscape:cx="11.00517"
     inkscape:cy="10.11169"
     inkscape:current-layer="svg7">
    <inkscape:grid
       type="xygrid"
       id="grid838" />
  </sodipodi:namedview>
  <defs
     id="defs3">
    <style
       id="current-color-scheme"
       type="text/css">
   .ColorScheme-Text { color:#6e6e6e; } .ColorScheme-Highlight { color:#5294e2; }
  </style>
    <style
       type="text/css"
       id="current-color-scheme-3">
   .ColorScheme-Text { color:#5c616c; } .ColorScheme-Highlight { color:#5294e2; }
  </style>
    <style
       type="text/css"
       id="current-color-scheme-6">
   .ColorScheme-Text { color:#5c616c; } .ColorScheme-Highlight { color:#5294e2; }
  </style>
    <style
       type="text/css"
       id="current-color-scheme-7">
   .ColorScheme-Text { color:#5c616c; } .ColorScheme-Highlight { color:#5294e2; }
  </style>
    <style
       type="text/css"
       id="current-color-scheme-5">
   .ColorScheme-Text { color:#5c616c; } .ColorScheme-Highlight { color:#5294e2; }
  </style>
    <style
       type="text/css"
       id="current-color-scheme-35">
   .ColorScheme-Text { color:#5c616c; } .ColorScheme-Highlight { color:#5294e2; }
  </style>
  </defs>
  <g
     id="g1942"
     transform="translate(-4,4)">
    <path
       inkscape:connector-curvature="0"
       id="path820"
       d="m 7,-3 c -1.108,0 -2,0.892 -2,2 v 4 6 c 0,1.108 0.892,2 2,2 h 6 4 c 1.108,2e-5 2,-0.892 2,-2 V 5 -1 c 0,-1.108 -0.892,-2 -2,-2 h -6 z m 0,2 h 4 6 V 4.994141 9 H 13 7 V 3.005859 Z"
       style="color:#6e6e6e;fill:currentColor" />
    <path
       sodipodi:nodetypes="ccccccccccccccc"
       inkscape:connector-curvature="0"
       style="color:#5c616c;fill:#edd400"
       class="ColorScheme-Text"
       d="M 12.220369,3 8.9914497,3.01027 c -0.00462,-2e-5 -0.00924,-6e-6 -0.013859,4.4e-5 -0.2626027,0.0023 -0.5137769,0.107732 -0.6992688,0.29363 l 0.00279,0.01659 c -0.3892795,0.391765 -0.3872647,1.024927 0.0045,1.414206 0.1881497,0.1869 0.4428353,0.291407 0.7080349,0.290535 l 3.2427272,-0.01032 1.996987,-0.01464 3.22892,-0.01028 C 17.73227,4.992935 17.991948,4.886482 18.182264,4.694956 18.571544,4.303191 18.569529,3.67003 18.177764,3.28075 17.989615,3.093851 17.734929,2.989343 17.46973,2.990214 l -3.252395,0.01173 z"
       id="path873" />
    <path
       inkscape:connector-curvature="0"
       style="color:#5c616c;fill:#edd400;stroke-width:1.09578705"
       class="ColorScheme-Text"
       d="M 14.992521,-1 V 9 l 6.003747,-5 z"
       id="path947" />
  </g>
</svg>
