/* XPM */
static char * connect_xpm[] = {
"32 32 4 1",
" 	c None",
".	c #646464",
"+	c #636363",
"@	c #656565",
"                                ",
"                                ",
"                                ",
"                                ",
"                                ",
"              ....              ",
"            .+......            ",
"          ...........+          ",
"         ..............         ",
"        ....+  +........        ",
"       ....    .........+       ",
"       ...     ..........       ",
"      ....     ...........      ",
"      ...   +.+.....+  ...      ",
"     ....@   .......   ....     ",
"     ......+   +.....  ....     ",
"     ........     ...+ ....     ",
"     ........      ... ....     ",
"      ......       ......+      ",
"      +......+     ......+      ",
"       ........    ......       ",
"       ........   ......+       ",
"        .......  .......        ",
"         ..............         ",
"          ...........+          ",
"            ........            ",
"              ....              ",
"                                ",
"                                ",
"                                ",
"                                ",
"                                "};
