/* XPM */
static char * deb_xpm[] = {
"16 16 49 1",
" 	c None",
".	c #F9538F",
"+	c #F9548F",
"@	c #F95490",
"#	c #F9548E",
"$	c #F9558F",
"%	c #FB91B7",
"&	c #FED6E4",
"*	c #FDCBDD",
"=	c #FCABC8",
"-	c #FA78A6",
";	c #FDC6DA",
">	c #FDD3E2",
",	c #FA7EAB",
"'	c #FA689C",
")	c #FB87B0",
"!	c #FEE6EF",
"~	c #F95791",
"{	c #FB92B7",
"]	c #FCA9C7",
"^	c #F95D95",
"/	c #FA71A2",
"(	c #FEDEE9",
"_	c #F95590",
":	c #FDC7DA",
"<	c #FA7EAA",
"[	c #FA75A5",
"}	c #FA6399",
"|	c #FCB3CD",
"1	c #FB8BB3",
"2	c #F95690",
"3	c #FCB7D0",
"4	c #FCADC9",
"5	c #FB96BA",
"6	c #FB7FAB",
"7	c #FB83AE",
"8	c #FDB8D0",
"9	c #F95B94",
"0	c #FA679C",
"a	c #FCA0C1",
"b	c #FB93B8",
"c	c #FA7AA8",
"d	c #FB8AB2",
"e	c #FB9ABD",
"f	c #F9538E",
"g	c #FCB1CC",
"h	c #F96197",
"i	c #F95F96",
"j	c #F95993",
"    .+++@#      ",
"   ++++$+++     ",
"  ++$%&*=-++    ",
" ++$;>,')!%++   ",
".+~{]$+^$/($++  ",
"$+_:$+<[}+:~+@  ",
"+++|++1++23+++  ",
"+++4+_5_^67+++  ",
"+++89+0abc+++@  ",
"#++de++++++++f  ",
" ++$gh+++++++   ",
"  ++~e/+++++    ",
"   +++ij+++     ",
"    +$++$f      ",
"                ",
"                "};
