/* XPM */
static char * diff_xpm[] = {
"16 16 11 1",
" 	c None",
".	c #CCCCCC",
"+	c #D1D1D0",
"@	c #F6F6EF",
"#	c #F8F8F0",
"$	c #CFCFCF",
"%	c #F7F7EF",
"&	c #D4D4D2",
"*	c #D8D8D6",
"=	c #727272",
"-	c #BFBFBF",
"                ",
"  .....+@       ",
"  .....+##      ",
"  .....+###     ",
"  .....$%##%    ",
"  ......&***    ",
"  .=====....    ",
"  .=.=-=.=..    ",
"  .=.=-=.=..    ",
"  .=.=-=.=..    ",
"  .=.=-=.=..    ",
"  .=====....    ",
"  ..........    ",
"  ..........    ",
"                ",
"                "};
