/* XPM */
static char * doc_xpm[] = {
"16 16 29 1",
" 	c None",
".	c #46A1DE",
"+	c #44A0DE",
"@	c #4DA3DF",
"#	c #7EBCE7",
"$	c #3498DB",
"%	c #3D9DDD",
"&	c #7FBEE9",
"*	c #80BDE9",
"=	c #3A9BDC",
"-	c #7EBEE8",
";	c #429FDD",
">	c #48A2DF",
",	c #49A3DF",
"'	c #8DC5EB",
")	c #E6F2FB",
"!	c #A3D1EF",
"~	c #4DA5E0",
"{	c #67B2E4",
"]	c #54A8E1",
"^	c #74B8E6",
"/	c #B3D9F2",
"(	c #84C0E9",
"_	c #9ACCED",
":	c #5AABE2",
"<	c #80BFE9",
"[	c #64B0E3",
"}	c #CDE6F6",
"|	c #419EDD",
"                ",
"  .++++@#       ",
"  $$$$$%&*      ",
"  $$$$$%&&*     ",
"  $$$$$=-&&*    ",
"  $$$$$$;>>,    ",
"  $$$$$$$$$$    ",
"  $')))))!$$    ",
"  $~{{{{{]$$    ",
"  $^/////($$    ",
"  ${_____^$$    ",
"  $:<<<<<[$$    ",
"  $<}}}$$$$$    ",
"  $|~~~$$$$$    ",
"                ",
"                "};
