/* XPM */
static char * exe_xpm[] = {
"16 16 17 1",
" 	c None",
".	c #5F7C8A",
"+	c #5F7C89",
"@	c #607D89",
"#	c #5F7D8A",
"$	c #748D9A",
"%	c #9FB0B9",
"&	c #748D99",
"*	c #9CAEB7",
"=	c #FAFBFB",
"-	c #FFFFFF",
";	c #9BADB6",
">	c #A0B1B9",
",	c #9EB0B8",
"'	c #9EAFB8",
")	c #738C99",
"!	c #607B8B",
"     ...+       ",
"    .....@      ",
" .#........#.   ",
" ....$%%&....   ",
"....*=--=;....  ",
"...$=----=&...  ",
"...>------,...  ",
" ..%------'..   ",
" ..$=----=&..   ",
"....;=--=;....  ",
".....&,,).....  ",
"..#........#!.  ",
"    .....#      ",
"     +..+       ",
"                ",
"                "};
