/* XPM */
static char * gftp_mini_logo_xpm[] = {
"52 19 67 1",
" 	c None",
".	c #BABDB6",
"+	c #A9B3B6",
"@	c #9DACB6",
"#	c #9FADB7",
"$	c #B5BAB6",
"%	c #B1B7B6",
"&	c #4E7BB3",
"*	c #4A79B2",
"=	c #4B79B2",
"-	c #7C96B4",
";	c #AAB3B5",
">	c #4877B1",
",	c #5D84B2",
"'	c #829BB5",
")	c #8DA2B6",
"!	c #4978B1",
"~	c #ACB5B6",
"{	c #FFFFFF",
"]	c #FDFDFD",
"^	c #F4F5F7",
"/	c #5F87B8",
"(	c #B9C4D2",
"_	c #BEC8D3",
":	c #F3F4F6",
"<	c #D8DBE2",
"[	c #426EA4",
"}	c #7D99BB",
"|	c #D2D7DC",
"1	c #A1ADB2",
"2	c #5191DD",
"3	c #5294E2",
"4	c #5190DC",
"5	c #DADCE3",
"6	c #96A6B2",
"7	c #F5F6F7",
"8	c #4F8FDB",
"9	c #457DBF",
"0	c #4780C4",
"a	c #4D8CD6",
"b	c #294B72",
"c	c #305785",
"d	c #376498",
"e	c #244163",
"f	c #5091DE",
"g	c #2F5581",
"h	c #27466B",
"i	c #1D344F",
"j	c #254367",
"k	c #4F8FDA",
"l	c #4E8CD6",
"m	c #223D5D",
"n	c #1E3753",
"o	c #4B87CE",
"p	c #4F8ED9",
"q	c #96A7B3",
"r	c #4780C3",
"s	c #3A69A0",
"t	c #3E71AC",
"u	c #4378B7",
"v	c #A1ADB3",
"w	c #A2AEB3",
"x	c #ACB4B4",
"y	c #5293E0",
"z	c #5394E0",
"A	c #97A3AB",
"B	c #8A9DAE",
"....................................................",
"..................................+@@@@@#$..........",
".................................%&*****=-..........",
".................................;>>>>>>>,'''''''').",
".................................;>>>>>>>>>>>>>>>>!~",
"............{{{{{.{{{{{{.{{{]^...;>/(___________(/>;",
"............{{......{{...{{..:<..;[}|||||||||||||}[;",
".....{{{{{..{{......{{...{{..:<..1233333333333333341",
"....{{..{{..{{{{{...{{...{{..:5..6333333333333333336",
"....{{..{{..{{......{{...{{{]7...6333333890a33333336",
"....{{..{{..{{......{{...{{......6333333bcdef3333336",
".....{{{{{..{{......{{...{{......63333ghicdijb333336",
"........{{.......................63333klmcdnop333336",
".....{{{{........................q333333rstu3333333q",
".................................v33333333333333333v",
".................................w33333333333333333w",
".................................xy333333333333333zx",
"..................................ABBBBBBBBBBBBBBBA.",
"...................................................."};
