/* XPM */
static char * gftp_xpm[] = {
"48 48 87 1",
" 	c None",
".	c #5A86B9",
"+	c #5A84B8",
"@	c #5983B9",
"#	c #5581B7",
"$	c #517DB5",
"%	c #507EB5",
"&	c #4877B1",
"*	c #507DB5",
"=	c #4A78B1",
"-	c #4978B1",
";	c #4B79B2",
">	c #5782B7",
",	c #5B84B8",
"'	c #4978B2",
")	c #5681B7",
"!	c #4A79B1",
"~	c #8DA6C5",
"{	c #C9CFD7",
"]	c #D2D5D9",
"^	c #6E91BC",
"/	c #DCDCDC",
"(	c #8AA4C4",
"_	c #4877AF",
":	c #426EA3",
"<	c #3F689A",
"[	c #3E6799",
"}	c #869CB7",
"|	c #3F689C",
"1	c #426FA8",
"2	c #477BBA",
"3	c #477BBB",
"4	c #6A96CC",
"5	c #93B6E0",
"6	c #467BB7",
"7	c #5294E2",
"8	c #4679B7",
"9	c #4D89D1",
"0	c #4E8BD3",
"a	c #5090DC",
"b	c #366296",
"c	c #2D517B",
"d	c #264469",
"e	c #3B6BA4",
"f	c #5293E1",
"g	c #4D8BD4",
"h	c #254367",
"i	c #1D344F",
"j	c #27466A",
"k	c #2C4F79",
"l	c #5091DE",
"m	c #2A4C74",
"n	c #345D8F",
"o	c #457DBF",
"p	c #1E3652",
"q	c #4E8CD6",
"r	c #325988",
"s	c #2E5480",
"t	c #294A71",
"u	c #38659A",
"v	c #213C5C",
"w	c #2B4E78",
"x	c #356093",
"y	c #2A4B73",
"z	c #3D6FA9",
"A	c #4780C3",
"B	c #1F3754",
"C	c #4F8ED9",
"D	c #2E527E",
"E	c #376498",
"F	c #4E8ED8",
"G	c #294B72",
"H	c #305785",
"I	c #5193E0",
"J	c #5192DF",
"K	c #3C6CA5",
"L	c #315887",
"M	c #2B4E77",
"N	c #4175B2",
"O	c #4E8CD3",
"P	c #4D8BD3",
"Q	c #477FC2",
"R	c #467FC1",
"S	c #3E72AE",
"T	c #4A85CB",
"U	c #4B87CE",
"V	c #3E71AD",
"                                                ",
"                                                ",
"                                                ",
"                                                ",
"    .++++++++++++++.                            ",
"  @#$$$$$$$$$$$$$$$$#@                          ",
"  %&&&&&&&&&&&&&&&&&&*                          ",
"  =&&&&&&&&&&&&&&&&&&=                          ",
"  &&&&&&&&&&&&&&&&&&&-                          ",
"  &&&&&&&&&&&&&&&&&&&;>>>>>>>>>>>>>>>>>>>>>>,   ",
"  &&&&&&&&&&&&&&&&&&&&&&&&&&&&&&&&&&&&&&&&&&')  ",
"  &&&&&&&&&&&&&&&&&&&&&&&&&&&&&&&&&&&&&&&&&&&!  ",
"  &&&&&&&&&&&&&&&&&&&&&&&&&&&&&&&&&&&&&&&&&&&&  ",
"  &&&&&~{]]]]]]]]]]]]]]]]]]]]]]]]]]]]]]{~&&&&&  ",
"  &&&&^//////////////////////////////////^&&&&  ",
"  &&&&(//////////////////////////////////(&&&&  ",
"  _:<[}//////////////////////////////////}[<:_  ",
"  |123455555555555555555555555555555555554321|  ",
"  67777777777777777777777777777777777777777778  ",
"  97777777777777777777777777777777777777777779  ",
"  07777777777777777777777777777777777777777770  ",
"  07777777777777777777777777777777777777777770  ",
"  07777777777777777777777777777777777777777770  ",
"  07777777777777777777777777777777777777777770  ",
"  07777777777777777abc77def7777777777777777770  ",
"  0777777777777777ghij77iikl777777777777777770  ",
"  077777777777777fmiij77iiin777777777777777770  ",
"  077777777777777oiiij77iiipq77777777777777770  ",
"  07777777777rsssdiiij77iiiitsssu7777777777770  ",
"  07777777777viiiiiiij77iiiiiiiiw7777777777770  ",
"  07777777777uxxxyiiij77iiiisxxxz7777777777770  ",
"  077777777777777Aiiij77iiiBC77777777777777770  ",
"  0777777777777777Diij77iiiE777777777777777770  ",
"  0777777777777777FGij77iiHI777777777777777770  ",
"  07777777777777777JKL77MN77777777777777777770  ",
"  0777777777777777777777777777777777777777777O  ",
"  07777777777777777777777777777777777777777770  ",
"  P777777777777777777777777777777777777777777P  ",
"  P777777777777777777777777777777777777777777P  ",
"  P777777777777777777777777777777777777777777P  ",
"  P777777777777777777777777777777777777777777P  ",
"  g777777777777777777777777777777777777777777g  ",
"  Q777777777777777777777777777777777777777777R  ",
"   STUUUUUUUUUUUUUUUUUUUUUUUUUUUUUUUUUUUUUUTV   ",
"                                                ",
"                                                ",
"                                                ",
"                                                "};
