/* XPM */
static char * img_xpm[] = {
"16 16 24 1",
" 	c None",
".	c #66BDB5",
"+	c #9BD4CF",
"@	c #70C1BA",
"#	c #8BCDC7",
"$	c #FBFDFD",
"%	c #C1E4E1",
"&	c #7AC6BF",
"*	c #F4FAF9",
"=	c #FFFFFF",
"-	c #FEFEFE",
";	c #89CCC6",
">	c #6BBFB7",
",	c #D0EBE8",
"'	c #91D0CA",
")	c #A0D6D1",
"!	c #E4F3F2",
"~	c #D4ECEA",
"{	c #FAFDFD",
"]	c #8CCEC8",
"^	c #B3DEDA",
"/	c #85CAC4",
"(	c #B8E0DC",
"_	c #8FCFC9",
"                ",
"                ",
" ...........    ",
" ...........    ",
" ...........    ",
" ...+@......    ",
" ..#$%......    ",
" .&*=-;>,'..    ",
" .)===!~={].    ",
" .)=======^.    ",
" ./(((((((_.    ",
" ...........    ",
"                ",
"                ",
"                ",
"                "};
