/* XPM */
static char * left_xpm[] = {
"16 16 3 1",
" 	c None",
".	c #646464",
"+	c #636363",
"                ",
"                ",
"       .        ",
"      ...       ",
"     ...        ",
"    ...         ",
"   ...          ",
"  ............  ",
"  ............  ",
"   ...          ",
"    ...         ",
"     +..        ",
"      ...       ",
"       .        ",
"                ",
"                "};
