/* XPM */
static char * linkfile_xpm[] = {
"16 16 25 1",
" 	c None",
".	c #2D2D2D",
"+	c #4B4B4B",
"@	c #F0F0F0",
"#	c #5F5F5F",
"$	c #333333",
"%	c #919191",
"&	c #C3C3C3",
"*	c #C7C7C7",
"=	c #FFFFFF",
"-	c #F7F7F7",
";	c #707070",
">	c #AAAAAA",
",	c #FDFDFD",
"'	c #5B5B5B",
")	c #EBEBEB",
"!	c #E9E9E9",
"~	c #E3E3E3",
"{	c #898989",
"]	c #CDCDCD",
"^	c #9C9C9C",
"/	c #464646",
"(	c #7E7E7E",
"_	c #5C5C5C",
":	c #2E2E2E",
"                ",
"                ",
"     ......     ",
"    ........    ",
"   .....+....   ",
"  ......@#....  ",
"  ..$%&*=-;...  ",
"  ..>=====,'..  ",
"  ..)=!~=,{...  ",
"  ..]^..-;....  ",
"  ../(.._....:  ",
"   ..........   ",
"    ........    ",
"     .....:     ",
"                ",
"                "};
