/* XPM */
static char * linkdir_xpm[] = {
"16 14 18 1",
" 	c None",
".	c #517DB5",
"+	c #4877B1",
"@	c #4E7BB4",
"#	c #5B84B6",
"$	c #668BBA",
"%	c #4E78AD",
"&	c #DADADB",
"*	c #DCDCDC",
"=	c #4576B1",
"-	c #5291DB",
";	c #5C99E2",
">	c #4579B7",
",	c #5294E2",
"'	c #4477B6",
")	c #4A86CD",
"!	c #4B88CE",
"~	c #4B86CC",
"                ",
"  .....         ",
"  +++++@        ",
"  +#$$$$$$$$#+  ",
"  %&********&%  ",
" =-;;;;;;;;;;-= ",
" >,,,,,,,,,,,,> ",
" >,,,,,,,,,,,,> ",
" >,,,,,,,,,,,,> ",
" >,,,,,,,,,,,,> ",
" ',,,,,,,,,,,,' ",
" >,,,,,,,,,,,,> ",
" >)!!!!!!!!!!~> ",
"                "};
