/* XPM */
static char * man_xpm[] = {
"16 16 12 1",
" 	c None",
".	c #6F644D",
"+	c #796C53",
"@	c #8A7B5F",
"#	c #A36B56",
"$	c #EF3A3A",
"%	c #BD5A4C",
"&	c #6E624C",
"*	c #8D795E",
"=	c #97735A",
"-	c #90775D",
";	c #6F644C",
" .+@@@@@#$%@@   ",
" &+@@@@@#$%@@   ",
" &+@@@@@#$%@@   ",
" &+@@@@@#$%@@   ",
" &+@@@@@#$%@@   ",
" &+@@@@@#$%@@   ",
" &+@@@@@*=-@@   ",
" &+@@@@@@@@@@   ",
" &+@@@@@@@@@@   ",
" &+@@@@@@@@@@   ",
" &+@@@@@@@@@@   ",
" &+@@@@@@@@@@   ",
" &+@@@@@@@@@@   ",
" ;+@@@@@@@@@@   ",
"                ",
"                "};
