/* XPM */
static char * open_dir_xpm[] = {
"16 14 19 1",
" 	c None",
".	c #517DB5",
"+	c #4877B1",
"@	c #4E7BB4",
"#	c #5B84B6",
"$	c #668BBA",
"%	c #517DB4",
"&	c #DADADB",
"*	c #DCDCDC",
"=	c #5680B5",
"-	c #4F86C7",
";	c #80ACE0",
">	c #4579B8",
",	c #5294E2",
"'	c #4579B7",
")	c #4477B6",
"!	c #4A86CD",
"~	c #4B88CE",
"{	c #4B86CC",
"                ",
"  .....         ",
"  +++++@        ",
"  +#$$$$$$$$#+  ",
"  %&********&%  ",
"  =**********=  ",
"  -;;;;;;;;;;-  ",
" >,,,,,,,,,,,,> ",
" ',,,,,,,,,,,,' ",
" ',,,,,,,,,,,,' ",
" ),,,,,,,,,,,,) ",
" ',,,,,,,,,,,,' ",
" '!~~~~~~~~~~{' ",
"                "};
