/* XPM */
static char * rpm_xpm[] = {
"16 16 36 1",
" 	c None",
".	c #D1D1D1",
"+	c #CAC6BC",
"@	c #B9A87F",
"#	c #C8C2B3",
"$	c #BEB192",
"%	c #B9A77D",
"&	c #BBAC87",
"*	c #BFB395",
"=	c #C3B9A0",
"-	c #C9C3B5",
";	c #BBAB85",
">	c #BEB191",
",	c #C4BCA7",
"'	c #C9C4B7",
")	c #B49F6E",
"!	c #B39D69",
"~	c #B6A375",
"{	c #B09961",
"]	c #B29C68",
"^	c #C6BFAD",
"/	c #B39F6D",
"(	c #B7A67B",
"_	c #B09962",
":	c #B19B65",
"<	c #B6A476",
"[	c #D1D1D0",
"}	c #CDCAC3",
"|	c #B9A981",
"1	c #CCC9C0",
"2	c #C5BCA6",
"3	c #C1B59A",
"4	c #C2B79D",
"5	c #CFCDC9",
"6	c #C7C0AF",
"7	c #C9C4B8",
"                ",
"                ",
" ...........    ",
" ...........    ",
" ...........    ",
" +@@#$%&+*=#    ",
" -;>,%')-!~,    ",
" -{]^%/(-__,    ",
" -:<[%}.-|&,    ",
" 123}45.1,67    ",
" ...........    ",
" ...........    ",
" ...........    ",
"                ",
"                ",
"                "};
