/* XPM */
static char * sound_xpm[] = {
"16 16 34 1",
" 	c None",
".	c #FE9700",
"+	c #FE9C0C",
"@	c #FFBC61",
"#	c #FFBD63",
"$	c #FE9B08",
"%	c #FFBD62",
"&	c #FFBD64",
"*	c #FE9E12",
"=	c #FEA11A",
"-	c #FEA11C",
";	c #FFF0DA",
">	c #FFFDFA",
",	c #FFE9C9",
"'	c #FFF6EA",
")	c #FFF5E5",
"!	c #FFF3E3",
"~	c #FFF0DB",
"{	c #FEA119",
"]	c #FEB343",
"^	c #FEBF62",
"/	c #FFFAF3",
"(	c #FEA41F",
"_	c #FED496",
":	c #FED494",
"<	c #FFFFFF",
"[	c #FFFAF2",
"}	c #FECF8A",
"|	c #FE9702",
"1	c #FFF8EF",
"2	c #FEDFB0",
"3	c #FEB64D",
"4	c #FE9F14",
"5	c #FEBB57",
"                ",
"  .....+@       ",
"  .....+##      ",
"  .....+###     ",
"  .....$%##&    ",
"  ......*==-    ",
"  ...;>>>,..    ",
"  ...')!'~..    ",
"  ...'{.]~..    ",
"  ..^/{(_~..    ",
"  .:<<{[<~..    ",
"  .}<>|1<2..    ",
"  ..3(.45...    ",
"  ..........    ",
"                ",
"                "};
