/* XPM */
static char * stop_xpm[] = {
"32 32 3 1",
" 	c None",
".	c #646464",
"+	c #636363",
"                                ",
"                                ",
"          ............          ",
"         ..............         ",
"        ................        ",
"       ..................       ",
"      ......        ......      ",
"     ......          ......     ",
"    ......  +.......  ......    ",
"   ......  ..........  ......   ",
"  ......  ............  ......  ",
"  .....  +.............  .....  ",
"  ....  ................  ....  ",
"  ....  ................  ....  ",
"  ....  ................  ....  ",
"  ....  ................  ....  ",
"  ....  ................  ....  ",
"  ....  ................  ....  ",
"  ....  ................  ....  ",
"  ....  ................  ....  ",
"  .....  +.............  .....  ",
"  ......  ............  ......  ",
"   ......  ..........  ......   ",
"    ......  +.......  ......    ",
"     ......          ......     ",
"      ......        ......      ",
"       ..................       ",
"        ................        ",
"         ..............         ",
"          ............          ",
"                                ",
"                                "};
