/* XPM */
static char * tar_xpm[] = {
"16 16 28 1",
" 	c None",
".	c #8BC34A",
"+	c #81B444",
"@	c #C5D1B7",
"#	c #729846",
"$	c #87A860",
"%	c #9FAF8B",
"&	c #ABC191",
"*	c #86A463",
"=	c #98B576",
"-	c #90AA71",
";	c #8BBD4F",
">	c #C0D6A7",
",	c #B7D09B",
"'	c #8BBE4F",
")	c #C8E0AD",
"!	c #C5DEA8",
"~	c #C8E0AC",
"{	c #DBE9CB",
"]	c #B1D587",
"^	c #F3F4F1",
"/	c #A5CF74",
"(	c #DAE8C8",
"_	c #9BCA64",
":	c #BAD997",
"<	c #DCE9CC",
"[	c #BBDA97",
"}	c #A6D075",
".....+@#+.....  ",
".....+$%+.....  ",
".....+&*+.....  ",
".....+=-+.....  ",
".....;>,'.....  ",
".....)!!~.....  ",
".....{]]{.....  ",
".....{^^{.....  ",
".....{//{.....  ",
".....(__(.....  ",
".....:<<[.....  ",
"......}}......  ",
"..............  ",
"..............  ",
"                ",
"                "};
