/* XPM */
static char * txt_xpm[] = {
"16 16 23 1",
" 	c None",
".	c #CCCCCC",
"+	c #D1D1D0",
"@	c #F6F6EF",
"#	c #F8F8F0",
"$	c #CFCFCF",
"%	c #F7F7EF",
"&	c #D4D4D2",
"*	c #D8D8D6",
"=	c #949494",
"-	c #727272",
";	c #C4C4C4",
">	c #BFBFBF",
",	c #9C9C9C",
"'	c #7F7F7F",
")	c #B4B4B4",
"!	c #A6A6A6",
"~	c #ACACAC",
"{	c #999999",
"]	c #A4A4A4",
"^	c #8C8C8C",
"/	c #BCBCBC",
"(	c #B2B2B2",
"                ",
"  .....+@       ",
"  .....+##      ",
"  .....+###     ",
"  .....$%##%    ",
"  ......&***    ",
"  ..=----=..    ",
"  ..;>>>>;..    ",
"  ..,'''',..    ",
"  ..)!!!!)..    ",
"  ..~{{{{~..    ",
"  ..]^^.....    ",
"  ../((.....    ",
"  ..........    ",
"                ",
"                "};
