/* XPM */
static char * world_xpm[] = {
"16 16 55 1",
" 	c None",
".	c #1E94F0",
"+	c #299AF1",
"@	c #76BDF6",
"#	c #2999F1",
"$	c #7ABFF5",
"%	c #7ABFF6",
"&	c #2698F0",
"*	c #79BEF4",
"=	c #2F9BF1",
"-	c #37A0F1",
";	c #39A1F1",
">	c #2397F0",
",	c #8AC7F7",
"'	c #C7E4FB",
")	c #CCE7FC",
"!	c #2296F0",
"~	c #1F94F0",
"{	c #B8DDFA",
"]	c #7DC1F6",
"^	c #70BBF5",
"/	c #FFFFFF",
"(	c #BBDFFA",
"_	c #58B0F4",
":	c #A5D4F9",
"<	c #4CAAF3",
"[	c #A4D4F9",
"}	c #DDEFFD",
"|	c #BDE0FB",
"1	c #56AFF4",
"2	c #83C4F7",
"3	c #EDF7FE",
"4	c #97CDF8",
"5	c #85C5F7",
"6	c #D5EBFC",
"7	c #CEE8FC",
"8	c #82C3F7",
"9	c #67B7F5",
"0	c #CBE6FC",
"a	c #2195F0",
"b	c #2095F0",
"c	c #F0F8FE",
"d	c #EAF5FE",
"e	c #65B6F5",
"f	c #2698F1",
"g	c #DCEEFD",
"h	c #92CBF8",
"i	c #5FB3F4",
"j	c #FEFFFF",
"k	c #DBEEFD",
"l	c #2597F0",
"m	c #3AA1F2",
"n	c #C0E1FB",
"o	c #F9FCFF",
"p	c #2798F1",
"                ",
"  .....+@       ",
"  .....#$%      ",
"  .....#$$%     ",
"  .....&*$$$    ",
"  ......=--;    ",
"  ..>,'),!..    ",
"  .~{]^//(..    ",
"  ._:<[/}|1.    ",
"  .23456728.    ",
"  .9/0abcde.    ",
"  .fg/hijkl.    ",
"  ..mn3onm..    ",
"  ....pp....    ",
"                ",
"                "};
