<?xml version="1.0" encoding="UTF-8" standalone="no"?>
<svg
   xmlns:dc="http://purl.org/dc/elements/1.1/"
   xmlns:cc="http://creativecommons.org/ns#"
   xmlns:rdf="http://www.w3.org/1999/02/22-rdf-syntax-ns#"
   xmlns:svg="http://www.w3.org/2000/svg"
   xmlns="http://www.w3.org/2000/svg"
   xmlns:sodipodi="http://sodipodi.sourceforge.net/DTD/sodipodi-0.dtd"
   xmlns:inkscape="http://www.inkscape.org/namespaces/inkscape"
   width="16"
   height="16"
   viewBox="0 0 16 16"
   version="1.1"
   id="svg7"
   sodipodi:docname="calendar.svg"
   inkscape:version="0.92.2 (5c3e80d, 2017-08-06)"
   inkscape:export-filename="/home/jesusda/work-in-progress/pasodoble/pasodoble-papirus/papirus-extra/zim/pixmaps/attachment.png"
   inkscape:export-xdpi="144"
   inkscape:export-ydpi="144">
  <metadata
     id="metadata11">
    <rdf:RDF>
      <cc:Work
         rdf:about="">
        <dc:format>image/svg+xml</dc:format>
        <dc:type
           rdf:resource="http://purl.org/dc/dcmitype/StillImage" />
        <dc:title />
      </cc:Work>
    </rdf:RDF>
  </metadata>
  <sodipodi:namedview
     pagecolor="#ffffff"
     bordercolor="#666666"
     borderopacity="1"
     objecttolerance="10"
     gridtolerance="10"
     guidetolerance="10"
     inkscape:pageopacity="0"
     inkscape:pageshadow="2"
     inkscape:window-width="640"
     inkscape:window-height="480"
     id="namedview9"
     showgrid="true"
     inkscape:zoom="29.518061"
     inkscape:cx="14.869136"
     inkscape:cy="5.960034"
     inkscape:current-layer="svg7"
     inkscape:snap-global="false">
    <inkscape:grid
       type="xygrid"
       id="grid815" />
  </sodipodi:namedview>
  <defs
     id="defs3">
    <style
       id="current-color-scheme"
       type="text/css">
   .ColorScheme-Text { color:#5c616c; } .ColorScheme-Highlight { color:#5294e2; }
  </style>
    <style
       type="text/css"
       id="current-color-scheme-35">
   .ColorScheme-Text { color:#5c616c; } .ColorScheme-Highlight { color:#5294e2; }
  </style>
    <style
       id="current-color-scheme-3"
       type="text/css">
   .ColorScheme-Text { color:#6e6e6e; } .ColorScheme-Highlight { color:#5294e2; }
  </style>
  </defs>
  <path
     style="color:#6e6e6e;fill:#6e6e6e;fill-opacity:1;stroke-width:0.72189981"
     class="ColorScheme-Text"
     d="m 9.461411,3.0163269 c -0.6907375,0 -1.3354544,0.3082279 -1.7685254,0.8454479 l -4.167133,5.1698655 c -0.38175,0.4735416 -0.5562434,1.0682757 -0.4926095,1.6742357 0.063634,0.605909 0.3588017,1.150672 0.8305626,1.534024 l 0.2706488,0.220733 c 0.4023155,0.326947 0.9084488,0.506714 1.4262764,0.506714 0.079954,0 0.1610212,-0.0041 0.2405768,-0.01248 0.5998246,-0.06349 1.140048,-0.357182 1.5193567,-0.823236 0.00128,-0.0014 0.0018,-0.002 2.8110236,-3.4872983 C 10.631903,8.0234429 10.536488,7.1101495 9.91822,6.607753 L 9.7764514,6.4925201 C 9.5209613,6.2849111 9.1988302,6.1704446 8.8699932,6.1704446 c -0.4385639,0 -0.8477763,0.1947723 -1.1226916,0.5358668 L 4.9405729,10.188059 c -0.1833387,0.227538 -0.1478589,0.562745 0.078761,0.74688 0.093779,0.07618 0.2117506,0.118002 0.3322251,0.118002 0.1604909,0 0.3100679,-0.07196 0.4109851,-0.197132 L 8.5692725,7.3740626 c 0.073399,-0.091042 0.182105,-0.1429904 0.299289,-0.1429904 0.089055,0 0.1728554,0.02988 0.2420089,0.086072 L 9.2523388,7.4323695 C 9.3321608,7.4972215 9.3818751,7.5904631 9.392675,7.6933615 9.403446,7.7962602 9.374241,7.8964744 9.309614,7.9765658 L 6.5071858,11.454148 c -0.2314222,0.286953 -0.5758715,0.451156 -0.9451229,0.451182 -0.2768258,0 -0.5482089,-0.09592 -0.7632583,-0.270709 L 4.5281557,11.415276 C 4.2759556,11.210119 4.1182272,10.918806 4.0842342,10.594817 4.0502148,10.270907 4.1436328,9.952561 4.3477231,9.6993918 L 8.5148561,4.529526 c 0.2314223,-0.2871141 0.5757126,-0.4525715 0.945122,-0.4525715 0.2768536,0 0.5482619,0.095979 0.7632589,0.2707099 l 0.270649,0.2207329 c 0.520614,0.4230244 0.601695,1.191797 0.180434,1.7144961 -0.08885,0.1102523 -0.129368,0.2490739 -0.114562,0.3900999 0.01483,0.1409994 0.08359,0.2676316 0.19332,0.3567819 0.09381,0.076201 0.211752,0.1180017 0.332226,0.1180017 0.160491,0 0.310094,-0.070597 0.410985,-0.1957441 C 11.877482,6.4791044 12.05264,5.8843967 11.988898,5.2777961 11.925215,4.6711687 11.630787,4.1264322 11.159769,3.743773 L 10.88912,3.5230403 C 10.486565,3.1960937 9.9791322,3.0163269 9.461411,3.0163269 Z"
     id="path5"
     inkscape:connector-curvature="0" />
</svg>
