<?xml version="1.0" encoding="UTF-8" standalone="no"?>
<svg
   xmlns:dc="http://purl.org/dc/elements/1.1/"
   xmlns:cc="http://creativecommons.org/ns#"
   xmlns:rdf="http://www.w3.org/1999/02/22-rdf-syntax-ns#"
   xmlns:svg="http://www.w3.org/2000/svg"
   xmlns="http://www.w3.org/2000/svg"
   xmlns:sodipodi="http://sodipodi.sourceforge.net/DTD/sodipodi-0.dtd"
   xmlns:inkscape="http://www.inkscape.org/namespaces/inkscape"
   width="16"
   height="16"
   viewBox="0 0 16 16"
   version="1.1"
   id="svg7"
   sodipodi:docname="xchecked-box.svg"
   inkscape:version="0.92.2 (5c3e80d, 2017-08-06)"
   inkscape:export-filename="/home/jesusda/work-in-progress/pasodoble/pasodoble-papirus/papirus-extra/zim/pixmaps/xchecked-box.png"
   inkscape:export-xdpi="144"
   inkscape:export-ydpi="144">
  <metadata
     id="metadata11">
    <rdf:RDF>
      <cc:Work
         rdf:about="">
        <dc:format>image/svg+xml</dc:format>
        <dc:type
           rdf:resource="http://purl.org/dc/dcmitype/StillImage" />
        <dc:title></dc:title>
      </cc:Work>
    </rdf:RDF>
  </metadata>
  <sodipodi:namedview
     pagecolor="#ffffff"
     bordercolor="#666666"
     borderopacity="1"
     objecttolerance="10"
     gridtolerance="10"
     guidetolerance="10"
     inkscape:pageopacity="0"
     inkscape:pageshadow="2"
     inkscape:window-width="640"
     inkscape:window-height="480"
     id="namedview9"
     showgrid="true"
     inkscape:zoom="39.357414"
     inkscape:cx="14.180208"
     inkscape:cy="9.1243281"
     inkscape:current-layer="svg7">
    <inkscape:grid
       type="xygrid"
       id="grid838" />
  </sodipodi:namedview>
  <defs
     id="defs3">
    <style
       id="current-color-scheme"
       type="text/css">
   .ColorScheme-Text { color:#6e6e6e; } .ColorScheme-Highlight { color:#5294e2; }
  </style>
    <style
       type="text/css"
       id="current-color-scheme-3">
   .ColorScheme-Text { color:#5c616c; } .ColorScheme-Highlight { color:#5294e2; }
  </style>
    <style
       type="text/css"
       id="current-color-scheme-6">
   .ColorScheme-Text { color:#5c616c; } .ColorScheme-Highlight { color:#5294e2; }
  </style>
  </defs>
  <g
     id="g1946"
     transform="translate(-4,4)">
    <path
       inkscape:connector-curvature="0"
       id="path820"
       d="m 7,-3 c -1.108,0 -2,0.892 -2,2 v 4 6 c 0,1.108 0.892,2 2,2 h 6 4 c 1.108,2e-5 2,-0.892 2,-2 V 5 -1 c 0,-1.108 -0.892,-2 -2,-2 h -6 z m 0,2 h 4 6 V 4.994141 9 H 13 7 V 3.005859 Z"
       style="color:#6e6e6e;fill:currentColor" />
    <path
       inkscape:connector-curvature="0"
       style="color:#5c616c;fill:#a40000"
       class="ColorScheme-Text"
       d="M 15.014801,-0.003869 A 1,1 0 0 0 14.30777,0.2891 L 12.014801,2.582069 9.731601,0.298865 A 1,1 0 0 0 9.721801,0.289065 1,1 0 0 0 9.0206322,2e-6 l -0.0098,0.01367 a 1,1 0 0 0 -1,1 1,1 0 0 0 0.292969,0.707031 L 10.596764,4.013672 8.3038012,6.306641 a 1,1 0 0 0 -0.289063,0.699219 1,1 0 0 0 1,1 1,1 0 0 0 0.7070288,-0.292969 l 2.292965,-2.292969 2.283203,2.283203 a 1,1 0 0 0 0.716797,0.302735 1,1 0 0 0 1,-1 1,1 0 0 0 -0.292968,-0.707032 L 13.420982,4 15.704185,1.716797 a 1,1 0 0 0 0.310547,-0.720703 1,1 0 0 0 -1,-1 z"
       id="path873" />
  </g>
</svg>
