<?xml version="1.0" encoding="UTF-8" standalone="no"?>
<svg
   xmlns:dc="http://purl.org/dc/elements/1.1/"
   xmlns:cc="http://creativecommons.org/ns#"
   xmlns:rdf="http://www.w3.org/1999/02/22-rdf-syntax-ns#"
   xmlns:svg="http://www.w3.org/2000/svg"
   xmlns="http://www.w3.org/2000/svg"
   xmlns:sodipodi="http://sodipodi.sourceforge.net/DTD/sodipodi-0.dtd"
   xmlns:inkscape="http://www.inkscape.org/namespaces/inkscape"
   width="16"
   height="16"
   viewBox="0 0 16 16"
   version="1.1"
   id="svg2476"
   sodipodi:docname="category-themes.svg"
   inkscape:version="0.92.5 (2060ec1f9f, 2020-04-08)">
  <metadata
     id="metadata2482">
    <rdf:RDF>
      <cc:Work
         rdf:about="">
        <dc:format>image/svg+xml</dc:format>
        <dc:type
           rdf:resource="http://purl.org/dc/dcmitype/StillImage" />
      </cc:Work>
    </rdf:RDF>
  </metadata>
  <defs
     id="defs2480" />
  <sodipodi:namedview
     pagecolor="#ffffff"
     bordercolor="#666666"
     borderopacity="1"
     objecttolerance="10"
     gridtolerance="10"
     guidetolerance="10"
     inkscape:pageopacity="0"
     inkscape:pageshadow="2"
     inkscape:window-width="640"
     inkscape:window-height="480"
     id="namedview2478"
     showgrid="false"
     inkscape:zoom="36.3125"
     inkscape:cx="3.1531842"
     inkscape:cy="8"
     inkscape:current-layer="svg2476" />
  <path
     fill="context-fill"
     fill-opacity="context-fill-opacity"
     d="M 14.574219 1.0058594 C 13.520146 0.87298937 10.770478 2.75775 8.0605469 5.46875 C 6.8520776 6.67795 5.8032796 7.8729 5 9 C 5.9414561 9.29995 6.7002076 10.0582 7 11 C 8.1266713 10.19649 9.3243336 9.1522594 10.533203 7.9433594 C 13.607725 4.8675594 15.546263 1.8205187 14.863281 1.1367188 C 14.793083 1.0660188 14.697306 1.0216494 14.574219 1.0058594 z M 4.5 10.330078 L 4.5 10.332031 C 1.0001889 11.270271 3.6248533 13.4865 1 15 C 4.4998111 15 6.25 13.248178 6.25 12.080078 C 6.25 11.497798 6.3093545 10.426978 4.5 10.330078 z"
     id="path2474"
     style="fill:#6e6e6e;fill-opacity:1" />
</svg>
