<?xml version="1.0" encoding="UTF-8" standalone="no"?>
<svg
   xmlns:dc="http://purl.org/dc/elements/1.1/"
   xmlns:cc="http://creativecommons.org/ns#"
   xmlns:rdf="http://www.w3.org/1999/02/22-rdf-syntax-ns#"
   xmlns:svg="http://www.w3.org/2000/svg"
   xmlns="http://www.w3.org/2000/svg"
   xmlns:sodipodi="http://sodipodi.sourceforge.net/DTD/sodipodi-0.dtd"
   xmlns:inkscape="http://www.inkscape.org/namespaces/inkscape"
   width="16"
   height="16"
   version="1.1"
   id="svg6902"
   sodipodi:docname="file-item.svg"
   inkscape:version="0.92.5 (2060ec1f9f, 2020-04-08)">
  <metadata
     id="metadata6908">
    <rdf:RDF>
      <cc:Work
         rdf:about="">
        <dc:format>image/svg+xml</dc:format>
        <dc:type
           rdf:resource="http://purl.org/dc/dcmitype/StillImage" />
      </cc:Work>
    </rdf:RDF>
  </metadata>
  <defs
     id="defs6906" />
  <sodipodi:namedview
     pagecolor="#ffffff"
     bordercolor="#666666"
     borderopacity="1"
     objecttolerance="10"
     gridtolerance="10"
     guidetolerance="10"
     inkscape:pageopacity="0"
     inkscape:pageshadow="2"
     inkscape:window-width="640"
     inkscape:window-height="480"
     id="namedview6904"
     showgrid="false"
     inkscape:zoom="36.3125"
     inkscape:cx="3.1531842"
     inkscape:cy="9.9652353"
     inkscape:current-layer="svg6902" />
  <path
     fill="context-fill"
     fill-opacity="context-fill-opacity"
     d="M 3 1 C 3 1 2 1 2 2 L 2 14 C 2 15 3 15 3 15 L 13 15 C 14 15 14 14 14 14 L 14 5 L 10 1 L 3 1 z M 4 5 L 12 5 L 12 7 L 4 7 L 4 5 z M 4 8 L 12 8 L 12 10 L 4 10 L 4 8 z M 4 11 L 12 11 L 12 13 L 4 13 L 4 11 z"
     id="path6900"
     style="fill:#6e6e6e;fill-opacity:1" />
</svg>
