<?xml version="1.0" encoding="UTF-8" standalone="no"?>
<svg
   xmlns:dc="http://purl.org/dc/elements/1.1/"
   xmlns:cc="http://creativecommons.org/ns#"
   xmlns:rdf="http://www.w3.org/1999/02/22-rdf-syntax-ns#"
   xmlns:svg="http://www.w3.org/2000/svg"
   xmlns="http://www.w3.org/2000/svg"
   xmlns:sodipodi="http://sodipodi.sourceforge.net/DTD/sodipodi-0.dtd"
   xmlns:inkscape="http://www.inkscape.org/namespaces/inkscape"
   width="16"
   height="16"
   version="1.1"
   id="svg10773"
   sodipodi:docname="help.svg"
   inkscape:version="0.92.5 (2060ec1f9f, 2020-04-08)">
  <metadata
     id="metadata10779">
    <rdf:RDF>
      <cc:Work
         rdf:about="">
        <dc:format>image/svg+xml</dc:format>
        <dc:type
           rdf:resource="http://purl.org/dc/dcmitype/StillImage" />
      </cc:Work>
    </rdf:RDF>
  </metadata>
  <defs
     id="defs10777" />
  <sodipodi:namedview
     pagecolor="#ffffff"
     bordercolor="#666666"
     borderopacity="1"
     objecttolerance="10"
     gridtolerance="10"
     guidetolerance="10"
     inkscape:pageopacity="0"
     inkscape:pageshadow="2"
     inkscape:window-width="640"
     inkscape:window-height="480"
     id="namedview10775"
     showgrid="false"
     inkscape:zoom="36.3125"
     inkscape:cx="3.1531842"
     inkscape:cy="8"
     inkscape:current-layer="svg10773" />
  <path
     fill="context-fill"
     fill-opacity="context-fill-opacity"
     d="M 9,15 H 7 V 13 H 9 Z M 11.07,7.25 10.17,8.17 C 9.45,8.9 9,9.5 9,11 H 7 V 10.5 C 7,9.4 7.45,8.4 8.17,7.67 L 9.41,6.41 C 9.78,6.05 10,5.55 10,5 10,3.9 9.1,3 8,3 6.9,3 6,3.9 6,5 H 4 C 4,2.79 5.79,1 8,1 10.21,1 12,2.79 12,5 12,5.88 11.64,6.68 11.07,7.25 Z"
     id="path10771"
     style="fill:#6e6e6e;fill-opacity:1" />
</svg>
