<?xml version="1.0" encoding="UTF-8" standalone="no"?>
<svg
   xmlns:dc="http://purl.org/dc/elements/1.1/"
   xmlns:cc="http://creativecommons.org/ns#"
   xmlns:rdf="http://www.w3.org/1999/02/22-rdf-syntax-ns#"
   xmlns:svg="http://www.w3.org/2000/svg"
   xmlns="http://www.w3.org/2000/svg"
   xmlns:sodipodi="http://sodipodi.sourceforge.net/DTD/sodipodi-0.dtd"
   xmlns:inkscape="http://www.inkscape.org/namespaces/inkscape"
   width="16"
   height="16"
   version="1.1"
   id="svg19074"
   sodipodi:docname="save-as.svg"
   inkscape:version="0.92.5 (2060ec1f9f, 2020-04-08)">
  <metadata
     id="metadata19080">
    <rdf:RDF>
      <cc:Work
         rdf:about="">
        <dc:format>image/svg+xml</dc:format>
        <dc:type
           rdf:resource="http://purl.org/dc/dcmitype/StillImage" />
      </cc:Work>
    </rdf:RDF>
  </metadata>
  <defs
     id="defs19078" />
  <sodipodi:namedview
     pagecolor="#ffffff"
     bordercolor="#666666"
     borderopacity="1"
     objecttolerance="10"
     gridtolerance="10"
     guidetolerance="10"
     inkscape:pageopacity="0"
     inkscape:pageshadow="2"
     inkscape:window-width="640"
     inkscape:window-height="480"
     id="namedview19076"
     showgrid="false"
     inkscape:zoom="36.3125"
     inkscape:cx="3.1531842"
     inkscape:cy="8"
     inkscape:current-layer="svg19074" />
  <path
     fill="context-fill"
     fill-opacity="context-fill-opacity"
     d="M 6 1 L 6 7 L 3.5 7 L 8 13 L 8 9.1426 C 8 8.5094 8.5094 8 9.1426 8 L 11.75 8 L 12.5 7 L 10 7 L 10 1 L 6 1 z M 1 14 L 1 16 L 9.1426 16 C 8.5094 16 8 15.491 8 14.857 L 8 14 L 1 14 z"
     id="path19070"
     style="fill:#6e6e6e;fill-opacity:1" />
  <path
     fill="context-fill"
     fill-opacity="context-fill-opacity"
     d="M 10,9 C 9.446,9 9,9.446 9,10 V 15 C 9,15.554 9.446,16 10,16 H 15 C 15.554,16 16,15.554 16,15 V 10 C 16,9.446 15.554,9 15,9 Z M 11,10 H 14 V 11 H 13 V 14 H 14 V 15 H 11 V 14 H 12 V 11 H 11 Z"
     id="path19072"
     style="fill:#6e6e6e;fill-opacity:1" />
</svg>
