<?xml version="1.0" encoding="UTF-8" standalone="no"?>
<svg
   xmlns:dc="http://purl.org/dc/elements/1.1/"
   xmlns:cc="http://creativecommons.org/ns#"
   xmlns:rdf="http://www.w3.org/1999/02/22-rdf-syntax-ns#"
   xmlns:svg="http://www.w3.org/2000/svg"
   xmlns="http://www.w3.org/2000/svg"
   xmlns:sodipodi="http://sodipodi.sourceforge.net/DTD/sodipodi-0.dtd"
   xmlns:inkscape="http://www.inkscape.org/namespaces/inkscape"
   width="16"
   height="16"
   version="1.1"
   id="svg23497"
   sodipodi:docname="task-tab.svg"
   inkscape:version="0.92.5 (2060ec1f9f, 2020-04-08)">
  <metadata
     id="metadata23503">
    <rdf:RDF>
      <cc:Work
         rdf:about="">
        <dc:format>image/svg+xml</dc:format>
        <dc:type
           rdf:resource="http://purl.org/dc/dcmitype/StillImage" />
      </cc:Work>
    </rdf:RDF>
  </metadata>
  <defs
     id="defs23501" />
  <sodipodi:namedview
     pagecolor="#ffffff"
     bordercolor="#666666"
     borderopacity="1"
     objecttolerance="10"
     gridtolerance="10"
     guidetolerance="10"
     inkscape:pageopacity="0"
     inkscape:pageshadow="2"
     inkscape:window-width="640"
     inkscape:window-height="480"
     id="namedview23499"
     showgrid="false"
     inkscape:zoom="36.3125"
     inkscape:cx="3.1531842"
     inkscape:cy="8"
     inkscape:current-layer="svg23497" />
  <path
     fill="context-fill"
     fill-opacity="context-fill-opacity"
     d="M 8 0 C 8 0 6 0 6 2 L 2 2 C 2 2 1 2 1 3 L 1 14 C 1 15 2 15 2 15 L 8 15 L 14 15 C 14 15 15 15 15 14 L 15 3 C 15 2 14 2 14 2 L 10 2 C 10 0 8 0 8 0 z M 8 1 A 1 1 0 0 1 9 2 A 1 1 0 0 1 8 3 A 1 1 0 0 1 7 2 A 1 1 0 0 1 8 1 z M 4 5 L 8 5 L 12 5 L 12 6 L 8 6 L 4 6 L 4 5 z M 4 8 L 8 8 L 12 8 L 12 9 L 8 9 L 4 9 L 4 8 z M 4 11 L 8 11 L 12 11 L 12 12 L 8 12 L 4 12 L 4 11 z"
     id="path23495"
     style="fill:#6e6e6e;fill-opacity:1" />
</svg>
