<?xml version="1.0" encoding="UTF-8" standalone="no"?>
<svg
   xmlns:dc="http://purl.org/dc/elements/1.1/"
   xmlns:cc="http://creativecommons.org/ns#"
   xmlns:rdf="http://www.w3.org/1999/02/22-rdf-syntax-ns#"
   xmlns:svg="http://www.w3.org/2000/svg"
   xmlns="http://www.w3.org/2000/svg"
   xmlns:sodipodi="http://sodipodi.sourceforge.net/DTD/sodipodi-0.dtd"
   xmlns:inkscape="http://www.inkscape.org/namespaces/inkscape"
   width="16"
   height="16"
   version="1.1"
   id="svg3052"
   sodipodi:docname="audio-playing-symbolic.svg"
   inkscape:version="0.92.5 (2060ec1f9f, 2020-04-08)">
  <metadata
     id="metadata3058">
    <rdf:RDF>
      <cc:Work
         rdf:about="">
        <dc:format>image/svg+xml</dc:format>
        <dc:type
           rdf:resource="http://purl.org/dc/dcmitype/StillImage" />
      </cc:Work>
    </rdf:RDF>
  </metadata>
  <defs
     id="defs3056" />
  <sodipodi:namedview
     pagecolor="#ffffff"
     bordercolor="#666666"
     borderopacity="1"
     objecttolerance="10"
     gridtolerance="10"
     guidetolerance="10"
     inkscape:pageopacity="0"
     inkscape:pageshadow="2"
     inkscape:window-width="640"
     inkscape:window-height="480"
     id="namedview3054"
     showgrid="false"
     inkscape:zoom="22.375"
     inkscape:cx="5.3157621"
     inkscape:cy="8.2767822"
     inkscape:current-layer="svg3052" />
  <path
     fill="context-fill"
     fill-opacity="context-fill-opacity"
     d="M 8 1 L 4 5 L 1 5 L 1 11 L 4 11 L 8 15 L 8 1 z M 10 1 L 10 2.5 C 12.32 3.24 14 5.43 14 8 C 14 10.57 12.32 12.76 10 13.5 L 10 15 C 13.15 14.22 15.5 11.4 15.5 8 C 15.5 4.6 13.15 1.78 10 1 z M 10 5 L 10 11 C 11.06 10.42 11.789 9.3 11.789 8 C 11.789 6.7 11.07 5.58 10 5 z"
     id="path3050"
     style="fill:#6e6e6e;fill-opacity:1" />
</svg>
