<?xml version="1.0" encoding="UTF-8" standalone="no"?>
<svg
   xmlns:dc="http://purl.org/dc/elements/1.1/"
   xmlns:cc="http://creativecommons.org/ns#"
   xmlns:rdf="http://www.w3.org/1999/02/22-rdf-syntax-ns#"
   xmlns:svg="http://www.w3.org/2000/svg"
   xmlns="http://www.w3.org/2000/svg"
   xmlns:sodipodi="http://sodipodi.sourceforge.net/DTD/sodipodi-0.dtd"
   xmlns:inkscape="http://www.inkscape.org/namespaces/inkscape"
   width="16"
   height="16"
   version="1.1"
   id="svg1372"
   sodipodi:docname="checkbox-mixed-symbolic.svg"
   inkscape:version="0.92.5 (2060ec1f9f, 2020-04-08)">
  <metadata
     id="metadata1378">
    <rdf:RDF>
      <cc:Work
         rdf:about="">
        <dc:format>image/svg+xml</dc:format>
        <dc:type
           rdf:resource="http://purl.org/dc/dcmitype/StillImage" />
      </cc:Work>
    </rdf:RDF>
  </metadata>
  <defs
     id="defs1376" />
  <sodipodi:namedview
     pagecolor="#ffffff"
     bordercolor="#666666"
     borderopacity="1"
     objecttolerance="10"
     gridtolerance="10"
     guidetolerance="10"
     inkscape:pageopacity="0"
     inkscape:pageshadow="2"
     inkscape:window-width="640"
     inkscape:window-height="480"
     id="namedview1374"
     showgrid="false"
     inkscape:zoom="31.643028"
     inkscape:cx="4.6431675"
     inkscape:cy="6.3246334"
     inkscape:current-layer="svg1372" />
  <path
     fill="context-fill"
     fill-opacity="context-fill-opacity"
     d="M 2.6660156 0 C 1.1860156 0 -5.9211895e-16 1.1860156 0 2.6660156 L 0 13.333984 C 0 14.813984 1.1860156 16 2.6660156 16 L 13.333984 16 C 14.813984 16 16 14.813984 16 13.333984 L 16 2.6660156 C 16 1.1860156 14.813984 -5.9211895e-16 13.333984 0 L 2.6660156 0 z M 3.1992188 2 L 12.800781 2 C 13.460781 2 14 2.5392187 14 3.1992188 L 14 12.800781 C 14 13.460782 13.460781 14 12.800781 14 L 3.1992188 14 C 2.5392187 14 2 13.460782 2 12.800781 L 2 3.1992188 C 2 2.5392187 2.5392187 2 3.1992188 2 z M 5 7 A 1 1 0 0 0 4 8 A 1 1 0 0 0 5 9 L 11 9 A 1 1 0 0 0 12 8 A 1 1 0 0 0 11 7 L 5 7 z"
     id="path1370"
     style="fill:#6e6e6e;fill-opacity:1" />
</svg>
