<?xml version="1.0" encoding="UTF-8" standalone="no"?>
<svg
   xmlns:dc="http://purl.org/dc/elements/1.1/"
   xmlns:cc="http://creativecommons.org/ns#"
   xmlns:rdf="http://www.w3.org/1999/02/22-rdf-syntax-ns#"
   xmlns:svg="http://www.w3.org/2000/svg"
   xmlns="http://www.w3.org/2000/svg"
   xmlns:sodipodi="http://sodipodi.sourceforge.net/DTD/sodipodi-0.dtd"
   xmlns:inkscape="http://www.inkscape.org/namespaces/inkscape"
   width="16"
   height="16"
   version="1.1"
   id="svg4"
   sodipodi:docname="edit-find-symbolic.svg"
   inkscape:version="0.92.5 (2060ec1f9f, 2020-04-08)">
  <metadata
     id="metadata10">
    <rdf:RDF>
      <cc:Work
         rdf:about="">
        <dc:format>image/svg+xml</dc:format>
        <dc:type
           rdf:resource="http://purl.org/dc/dcmitype/StillImage" />
      </cc:Work>
    </rdf:RDF>
  </metadata>
  <defs
     id="defs8" />
  <sodipodi:namedview
     pagecolor="#ffffff"
     bordercolor="#666666"
     borderopacity="1"
     objecttolerance="10"
     gridtolerance="10"
     guidetolerance="10"
     inkscape:pageopacity="0"
     inkscape:pageshadow="2"
     inkscape:window-width="640"
     inkscape:window-height="480"
     id="namedview6"
     showgrid="false"
     inkscape:zoom="22.375"
     inkscape:cx="4.4719985"
     inkscape:cy="5.3445774"
     inkscape:current-layer="svg4" />
  <path
     fill="context-fill"
     fill-opacity="context-fill-opacity"
     d="M 6.5 1 A 5.5 5.5 0 0 0 1 6.5 A 5.5 5.5 0 0 0 6.5 12 A 5.5 5.5 0 0 0 9.6172 11.031 L 13.279 14.693 A 1 1 0 0 0 14 15 A 1 1 0 0 0 15 14 A 1 1 0 0 0 14.697 13.283 L 11.027 9.6133 A 5.5 5.5 0 0 0 12 6.5 A 5.5 5.5 0 0 0 6.5 1 z M 6.5 3 A 3.5 3.5 0 0 1 10 6.5 A 3.5 3.5 0 0 1 6.5 10 A 3.5 3.5 0 0 1 3 6.5 A 3.5 3.5 0 0 1 6.5 3 z"
     id="path2"
     style="fill:#6e6e6e;fill-opacity:1" />
</svg>
