<?xml version="1.0" encoding="UTF-8" standalone="no"?>
<svg
   xmlns:dc="http://purl.org/dc/elements/1.1/"
   xmlns:cc="http://creativecommons.org/ns#"
   xmlns:rdf="http://www.w3.org/1999/02/22-rdf-syntax-ns#"
   xmlns:svg="http://www.w3.org/2000/svg"
   xmlns="http://www.w3.org/2000/svg"
   xmlns:sodipodi="http://sodipodi.sourceforge.net/DTD/sodipodi-0.dtd"
   xmlns:inkscape="http://www.inkscape.org/namespaces/inkscape"
   width="16"
   height="16"
   version="1.1"
   id="svg4139"
   sodipodi:docname="edit-cut-symbolic.svg"
   inkscape:version="0.92.5 (2060ec1f9f, 2020-04-08)">
  <metadata
     id="metadata4145">
    <rdf:RDF>
      <cc:Work
         rdf:about="">
        <dc:format>image/svg+xml</dc:format>
        <dc:type
           rdf:resource="http://purl.org/dc/dcmitype/StillImage" />
      </cc:Work>
    </rdf:RDF>
  </metadata>
  <defs
     id="defs4143" />
  <sodipodi:namedview
     pagecolor="#ffffff"
     bordercolor="#666666"
     borderopacity="1"
     objecttolerance="10"
     gridtolerance="10"
     guidetolerance="10"
     inkscape:pageopacity="0"
     inkscape:pageshadow="2"
     inkscape:window-width="640"
     inkscape:window-height="480"
     id="namedview4141"
     showgrid="false"
     inkscape:zoom="15.821514"
     inkscape:cx="6.4169226"
     inkscape:cy="1.8195491"
     inkscape:current-layer="svg4139" />
  <path
     fill="context-fill"
     fill-opacity="context-fill-opacity"
     d="M 4.5,2 C 3.12,2 2,3.12 2,4.5 2,5.88 3.12,7 4.5,7 4.95,7 5.36,6.86 5.72,6.66 L 7.69,8.5 5.72,10.34 C 5.36,10.14 4.95,10 4.5,10 3.12,10 2,11.12 2,12.5 2,13.88 3.12,15 4.5,15 5.88,15 7,13.88 7,12.5 7,12.27 6.96,12.06 6.91,11.84 L 9.03,9.78 13.5,14 H 15 V 13 L 6.91,5.16 C 6.96,4.95 7,4.73 7,4.5 7,3.12 5.88,2 4.5,2 Z M 4.5,3.5 C 5.05,3.5 5.5,3.95 5.5,4.5 5.5,5.05 5.05,5.5 4.5,5.5 3.95,5.5 3.5,5.05 3.5,4.5 3.5,3.95 3.95,3.5 4.5,3.5 Z M 13.5,3 9.56,6.72 10.88,8 15,4 V 3 Z M 4.5,11.5 C 5.05,11.5 5.5,11.95 5.5,12.5 5.5,13.05 5.05,13.5 4.5,13.5 3.95,13.5 3.5,13.05 3.5,12.5 3.5,11.95 3.95,11.5 4.5,11.5 Z"
     id="path4137"
     style="fill:#6e6e6e;fill-opacity:1" />
</svg>
