<?xml version="1.0" encoding="UTF-8" standalone="no"?>
<svg
   xmlns:dc="http://purl.org/dc/elements/1.1/"
   xmlns:cc="http://creativecommons.org/ns#"
   xmlns:rdf="http://www.w3.org/1999/02/22-rdf-syntax-ns#"
   xmlns:svg="http://www.w3.org/2000/svg"
   xmlns="http://www.w3.org/2000/svg"
   xmlns:sodipodi="http://sodipodi.sourceforge.net/DTD/sodipodi-0.dtd"
   xmlns:inkscape="http://www.inkscape.org/namespaces/inkscape"
   width="16"
   height="16"
   version="1.1"
   id="svg3586"
   sodipodi:docname="edit-copy-symbolic.svg"
   inkscape:version="0.92.5 (2060ec1f9f, 2020-04-08)">
  <metadata
     id="metadata3592">
    <rdf:RDF>
      <cc:Work
         rdf:about="">
        <dc:format>image/svg+xml</dc:format>
        <dc:type
           rdf:resource="http://purl.org/dc/dcmitype/StillImage" />
      </cc:Work>
    </rdf:RDF>
  </metadata>
  <defs
     id="defs3590" />
  <sodipodi:namedview
     pagecolor="#ffffff"
     bordercolor="#666666"
     borderopacity="1"
     objecttolerance="10"
     gridtolerance="10"
     guidetolerance="10"
     inkscape:pageopacity="0"
     inkscape:pageshadow="2"
     inkscape:window-width="640"
     inkscape:window-height="480"
     id="namedview3588"
     showgrid="false"
     inkscape:zoom="22.375"
     inkscape:cx="2.9666255"
     inkscape:cy="4.8209694"
     inkscape:current-layer="svg3586" />
  <path
     fill="context-fill"
     fill-opacity="context-fill-opacity"
     d="M 3,1 C 3,1 2,1 2,2 V 11 C 2,11 2,12 3,12 H 4 V 3 H 12 V 2 C 12,1 11,1 11,1 Z M 6,4 C 6,4 5,4 5,5 V 15 C 5,16 6,16 6,16 H 14 C 14,16 15,16 15,15 V 5 C 15,4 14,4 14,4 Z M 7,6 H 13 V 14 H 7 Z"
     id="path3584"
     style="fill:#6e6e6e;fill-opacity:1" />
</svg>
