<?xml version="1.0" encoding="UTF-8" standalone="no"?>
<svg
   xmlns:dc="http://purl.org/dc/elements/1.1/"
   xmlns:cc="http://creativecommons.org/ns#"
   xmlns:rdf="http://www.w3.org/1999/02/22-rdf-syntax-ns#"
   xmlns:svg="http://www.w3.org/2000/svg"
   xmlns="http://www.w3.org/2000/svg"
   xmlns:sodipodi="http://sodipodi.sourceforge.net/DTD/sodipodi-0.dtd"
   xmlns:inkscape="http://www.inkscape.org/namespaces/inkscape"
   width="16"
   height="16"
   version="1.1"
   id="svg819"
   sodipodi:docname="edit-paste-symbolic.svg"
   inkscape:version="0.92.5 (2060ec1f9f, 2020-04-08)">
  <metadata
     id="metadata825">
    <rdf:RDF>
      <cc:Work
         rdf:about="">
        <dc:format>image/svg+xml</dc:format>
        <dc:type
           rdf:resource="http://purl.org/dc/dcmitype/StillImage" />
      </cc:Work>
    </rdf:RDF>
  </metadata>
  <defs
     id="defs823" />
  <sodipodi:namedview
     pagecolor="#ffffff"
     bordercolor="#666666"
     borderopacity="1"
     objecttolerance="10"
     gridtolerance="10"
     guidetolerance="10"
     inkscape:pageopacity="0"
     inkscape:pageshadow="2"
     inkscape:window-width="640"
     inkscape:window-height="480"
     id="namedview821"
     showgrid="false"
     inkscape:zoom="22.375"
     inkscape:cx="2.6393705"
     inkscape:cy="4.5591654"
     inkscape:current-layer="svg819" />
  <path
     fill="context-fill"
     fill-opacity="context-fill-opacity"
     d="M 8,0 C 6.9,0 6,0.9 6,2 H 3 C 2,2 2,3 2,3 V 14 C 2,15 3,15 3,15 H 13 C 13,15 14,15 14,14 V 3 C 14,2 13,2 13,2 H 10 C 10,1.86 10,1.72 9.97,1.59 9.78,0.68 8.97,0 8,0 Z M 8,1 C 8.41,1 8.75,1.27 8.91,1.62 8.96,1.74 9,1.86 9,2 9,2.55 8.55,3 8,3 7.45,3 7,2.55 7,2 7,1.45 7.45,1 8,1 Z M 4,4 H 5 V 5 H 11 V 4 H 12 V 13 H 4 Z"
     id="path817"
     style="fill:#6e6e6e;fill-opacity:1" />
</svg>
