<?xml version="1.0" encoding="UTF-8" standalone="no"?>
<svg
   xmlns:dc="http://purl.org/dc/elements/1.1/"
   xmlns:cc="http://creativecommons.org/ns#"
   xmlns:rdf="http://www.w3.org/1999/02/22-rdf-syntax-ns#"
   xmlns:svg="http://www.w3.org/2000/svg"
   xmlns="http://www.w3.org/2000/svg"
   xmlns:sodipodi="http://sodipodi.sourceforge.net/DTD/sodipodi-0.dtd"
   xmlns:inkscape="http://www.inkscape.org/namespaces/inkscape"
   width="16"
   height="16"
   version="1.1"
   id="svg4692"
   sodipodi:docname="reader-mode-symbolic.svg"
   inkscape:version="0.92.5 (2060ec1f9f, 2020-04-08)">
  <metadata
     id="metadata4698">
    <rdf:RDF>
      <cc:Work
         rdf:about="">
        <dc:format>image/svg+xml</dc:format>
        <dc:type
           rdf:resource="http://purl.org/dc/dcmitype/StillImage" />
      </cc:Work>
    </rdf:RDF>
  </metadata>
  <defs
     id="defs4696" />
  <sodipodi:namedview
     pagecolor="#ffffff"
     bordercolor="#666666"
     borderopacity="1"
     objecttolerance="10"
     gridtolerance="10"
     guidetolerance="10"
     inkscape:pageopacity="0"
     inkscape:pageshadow="2"
     inkscape:window-width="640"
     inkscape:window-height="480"
     id="namedview4694"
     showgrid="false"
     inkscape:zoom="44.75"
     inkscape:cx="4.1340782"
     inkscape:cy="8"
     inkscape:current-layer="svg4692" />
  <path
     fill="context-fill"
     fill-opacity="context-fill-opacity"
     d="M 0,1 V 14 H 6 C 7,14 8,15 8,15 8,15 9,14 10,14 H 16 V 1 H 10 C 9,1 8,2 8,2 8,2 7,1 6,1 Z M 2,3 H 6 C 7,3 8,4 8,4 8,4 9,3 10,3 H 14 V 12 H 10 C 9,12 8,13 8,13 8,13 7,12 6,12 H 2 Z"
     id="path4688"
     style="fill:#6e6e6e;fill-opacity:1" />
  <path
     fill="context-fill"
     fill-opacity="context-fill-opacity"
     d="M 3 5 L 3 6 L 7 6 L 7 5 L 3 5 z M 9 5 L 9 6 L 13 6 L 13 5 L 9 5 z M 3 7 L 3 8 L 7 8 L 7 7 L 3 7 z M 9 7 L 9 8 L 13 8 L 13 7 L 9 7 z M 3 9 L 3 10 L 7 10 L 7 9 L 3 9 z M 9 9 L 9 10 L 13 10 L 13 9 L 9 9 z"
     id="path4690"
     style="fill:#6e6e6e;fill-opacity:1" />
</svg>
