<?xml version="1.0" encoding="UTF-8" standalone="no"?>
<svg
   xmlns:dc="http://purl.org/dc/elements/1.1/"
   xmlns:cc="http://creativecommons.org/ns#"
   xmlns:rdf="http://www.w3.org/1999/02/22-rdf-syntax-ns#"
   xmlns:svg="http://www.w3.org/2000/svg"
   xmlns="http://www.w3.org/2000/svg"
   xmlns:sodipodi="http://sodipodi.sourceforge.net/DTD/sodipodi-0.dtd"
   xmlns:inkscape="http://www.inkscape.org/namespaces/inkscape"
   width="16"
   height="16"
   version="1.1"
   id="svg4141"
   sodipodi:docname="view-more-horizontal-symbolic.svg"
   inkscape:version="0.92.5 (2060ec1f9f, 2020-04-08)">
  <metadata
     id="metadata4147">
    <rdf:RDF>
      <cc:Work
         rdf:about="">
        <dc:format>image/svg+xml</dc:format>
        <dc:type
           rdf:resource="http://purl.org/dc/dcmitype/StillImage" />
      </cc:Work>
    </rdf:RDF>
  </metadata>
  <defs
     id="defs4145" />
  <sodipodi:namedview
     pagecolor="#ffffff"
     bordercolor="#666666"
     borderopacity="1"
     objecttolerance="10"
     gridtolerance="10"
     guidetolerance="10"
     inkscape:pageopacity="0"
     inkscape:pageshadow="2"
     inkscape:window-width="640"
     inkscape:window-height="480"
     id="namedview4143"
     showgrid="false"
     inkscape:zoom="22.375"
     inkscape:cx="8.045623"
     inkscape:cy="5.6718324"
     inkscape:current-layer="svg4141" />
  <path
     fill="context-fill"
     fill-opacity="context-fill-opacity"
     d="M 5,8.5 A 1.5,1.5 0 0 1 3.5,10 1.5,1.5 0 0 1 2,8.5 1.5,1.5 0 0 1 3.5,7 1.5,1.5 0 0 1 5,8.5 Z"
     id="path4135"
     style="fill:#6e6e6e;fill-opacity:1" />
  <path
     fill="context-fill"
     fill-opacity="context-fill-opacity"
     d="M 9,8.5 A 1.5,1.5 0 0 1 7.5,10 1.5,1.5 0 0 1 6,8.5 1.5,1.5 0 0 1 7.5,7 1.5,1.5 0 0 1 9,8.5 Z"
     id="path4137"
     style="fill:#6e6e6e;fill-opacity:1" />
  <path
     fill="context-fill"
     fill-opacity="context-fill-opacity"
     d="M 13,8.5 A 1.5,1.5 0 0 1 11.5,10 1.5,1.5 0 0 1 10,8.5 1.5,1.5 0 0 1 11.5,7 1.5,1.5 0 0 1 13,8.5 Z"
     id="path4139"
     style="fill:#6e6e6e;fill-opacity:1" />
</svg>
