<?xml version="1.0" encoding="UTF-8" standalone="no"?>
<svg
   xmlns:dc="http://purl.org/dc/elements/1.1/"
   xmlns:cc="http://creativecommons.org/ns#"
   xmlns:rdf="http://www.w3.org/1999/02/22-rdf-syntax-ns#"
   xmlns:svg="http://www.w3.org/2000/svg"
   xmlns="http://www.w3.org/2000/svg"
   xmlns:sodipodi="http://sodipodi.sourceforge.net/DTD/sodipodi-0.dtd"
   xmlns:inkscape="http://www.inkscape.org/namespaces/inkscape"
   width="16"
   height="16"
   version="1.1"
   id="svg4696"
   sodipodi:docname="view-private-symbolic.svg"
   inkscape:version="0.92.5 (2060ec1f9f, 2020-04-08)">
  <metadata
     id="metadata4702">
    <rdf:RDF>
      <cc:Work
         rdf:about="">
        <dc:format>image/svg+xml</dc:format>
        <dc:type
           rdf:resource="http://purl.org/dc/dcmitype/StillImage" />
      </cc:Work>
    </rdf:RDF>
  </metadata>
  <defs
     id="defs4700" />
  <sodipodi:namedview
     pagecolor="#ffffff"
     bordercolor="#666666"
     borderopacity="1"
     objecttolerance="10"
     gridtolerance="10"
     guidetolerance="10"
     inkscape:pageopacity="0"
     inkscape:pageshadow="2"
     inkscape:window-width="640"
     inkscape:window-height="480"
     id="namedview4698"
     showgrid="false"
     inkscape:zoom="11.1875"
     inkscape:cx="8.289487"
     inkscape:cy="9.4063153"
     inkscape:current-layer="svg4696" />
  <path
     fill="context-fill"
     fill-opacity="context-fill-opacity"
     d="M 4,8 C 2.34,8 1,9.34 1,11 1,12.66 2.34,14 4,14 5.56,14 6.82,12.8 6.97,11.28 7.27,11.1 7.63,11 8,11 8.37,11 8.73,11.1 9.03,11.28 9.18,12.8 10.44,14 12,14 13.66,14 15,12.66 15,11 15,9.34 13.66,8 12,8 10.61,8 9.46,8.97 9.13,10.25 8.77,10.11 8.4,10 8,10 7.6,10 7.23,10.11 6.88,10.25 6.54,8.97 5.39,8 4,8 Z M 4,9.25 C 4.97,9.25 5.75,10.03 5.75,11 5.75,11.97 4.97,12.75 4,12.75 3.03,12.75 2.25,11.97 2.25,11 2.25,10.03 3.03,9.25 4,9.25 Z M 12,9.25 C 12.97,9.25 13.75,10.03 13.75,11 13.75,11.97 12.97,12.75 12,12.75 11.03,12.75 10.25,11.97 10.25,11 10.25,10.03 11.03,9.25 12,9.25 Z"
     id="path4692"
     style="fill:#6e6e6e;fill-opacity:1" />
  <path
     fill="context-fill"
     fill-opacity="context-fill-opacity"
     d="M 4,1 3.25,4 H 12.75 L 12,1 8,1.5 Z M 3,5 0,7 H 16 L 13,5 Z"
     id="path4694"
     style="fill:#6e6e6e;fill-opacity:1" />
</svg>
