<?xml version="1.0" encoding="UTF-8" standalone="no"?>
<svg
   xmlns:dc="http://purl.org/dc/elements/1.1/"
   xmlns:cc="http://creativecommons.org/ns#"
   xmlns:rdf="http://www.w3.org/1999/02/22-rdf-syntax-ns#"
   xmlns:svg="http://www.w3.org/2000/svg"
   xmlns="http://www.w3.org/2000/svg"
   xmlns:sodipodi="http://sodipodi.sourceforge.net/DTD/sodipodi-0.dtd"
   xmlns:inkscape="http://www.inkscape.org/namespaces/inkscape"
   width="16"
   height="16"
   version="1.1"
   id="svg819"
   sodipodi:docname="window-close-symbolic.svg"
   inkscape:version="0.92.5 (2060ec1f9f, 2020-04-08)">
  <metadata
     id="metadata825">
    <rdf:RDF>
      <cc:Work
         rdf:about="">
        <dc:format>image/svg+xml</dc:format>
        <dc:type
           rdf:resource="http://purl.org/dc/dcmitype/StillImage" />
      </cc:Work>
    </rdf:RDF>
  </metadata>
  <defs
     id="defs823" />
  <sodipodi:namedview
     pagecolor="#ffffff"
     bordercolor="#666666"
     borderopacity="1"
     objecttolerance="10"
     gridtolerance="10"
     guidetolerance="10"
     inkscape:pageopacity="0"
     inkscape:pageshadow="2"
     inkscape:window-width="640"
     inkscape:window-height="480"
     id="namedview821"
     showgrid="false"
     inkscape:zoom="31.643028"
     inkscape:cx="4.4673003"
     inkscape:cy="7.7500834"
     inkscape:current-layer="svg819" />
  <path
     fill="context-fill"
     fill-opacity="context-fill-opacity"
     d="M 5,4 A 1,1 0 0 0 4,5 1,1 0 0 0 4.29,5.71 L 6.59,8 4.29,10.29 A 1,1 0 0 0 4,11 1,1 0 0 0 5,12 1,1 0 0 0 5.71,11.71 L 8,9.41 10.28,11.7 A 1,1 0 0 0 11,12 1,1 0 0 0 12,11 1,1 0 0 0 11.71,10.29 L 9.41,8 11.7,5.72 A 1,1 0 0 0 12,5 1,1 0 0 0 11,4 1,1 0 0 0 10.29,4.29 L 8,6.59 5.72,4.3 A 1,1 0 0 0 5.71,4.29 1,1 0 0 0 5,4 Z"
     id="path817"
     style="fill:#6e6e6e;fill-opacity:1" />
</svg>
