<?xml version="1.0" encoding="UTF-8" standalone="no"?>
<svg
   xmlns:dc="http://purl.org/dc/elements/1.1/"
   xmlns:cc="http://creativecommons.org/ns#"
   xmlns:rdf="http://www.w3.org/1999/02/22-rdf-syntax-ns#"
   xmlns:svg="http://www.w3.org/2000/svg"
   xmlns="http://www.w3.org/2000/svg"
   xmlns:sodipodi="http://sodipodi.sourceforge.net/DTD/sodipodi-0.dtd"
   xmlns:inkscape="http://www.inkscape.org/namespaces/inkscape"
   width="16"
   height="16"
   version="1.1"
   id="svg3031"
   sodipodi:docname="window-restore-symbolic.svg"
   inkscape:version="0.92.5 (2060ec1f9f, 2020-04-08)">
  <metadata
     id="metadata3037">
    <rdf:RDF>
      <cc:Work
         rdf:about="">
        <dc:format>image/svg+xml</dc:format>
        <dc:type
           rdf:resource="http://purl.org/dc/dcmitype/StillImage" />
      </cc:Work>
    </rdf:RDF>
  </metadata>
  <defs
     id="defs3035" />
  <sodipodi:namedview
     pagecolor="#ffffff"
     bordercolor="#666666"
     borderopacity="1"
     objecttolerance="10"
     gridtolerance="10"
     guidetolerance="10"
     inkscape:pageopacity="0"
     inkscape:pageshadow="2"
     inkscape:window-width="640"
     inkscape:window-height="480"
     id="namedview3033"
     showgrid="false"
     inkscape:zoom="44.75"
     inkscape:cx="4.1340782"
     inkscape:cy="8"
     inkscape:current-layer="svg3031" />
  <path
     fill="context-fill"
     fill-opacity="context-fill-opacity"
     d="M 5,4 C 4.446,4 4,4.446 4,5 V 11 C 4,11.554 4.446,12 5,12 H 11 C 11.554,12 12,11.554 12,11 V 5 C 12,4.446 11.554,4 11,4 Z M 6.5,7 H 9.5 C 9.777,7 10,7.223 10,7.5 V 9.5 C 10,9.777 9.777,10 9.5,10 H 6.5 C 6.223,10 6,9.777 6,9.5 V 7.5 C 6,7.223 6.223,7 6.5,7 Z"
     id="path3029"
     style="fill:#6e6e6e;fill-opacity:1" />
</svg>
